<?xml version="1.0" encoding="utf-8"?>
<!-- Generator: Adobe Illustrator 16.0.0, SVG Export Plug-In . SVG Version: 6.00 Build 0)  -->
<!DOCTYPE svg PUBLIC "-//W3C//DTD SVG 1.1//EN" "http://www.w3.org/Graphics/SVG/1.1/DTD/svg11.dtd">
<svg version="1.1" id="Layer_1" xmlns="http://www.w3.org/2000/svg" xmlns:xlink="http://www.w3.org/1999/xlink" x="0px" y="0px"
	 width="212px" height="212px" viewBox="0 0 212 212" enable-background="new 0 0 212 212" xml:space="preserve">
<path fill="#DFE5E7" d="M105.946,0.25c58.373,0,105.695,47.346,105.695,105.75c0,58.404-47.322,105.75-105.696,105.75
	C47.571,211.75,0.25,164.404,0.25,106C0.25,47.596,47.571,0.25,105.946,0.25z"/>
<g>
	<g>
		<path fill="#FFFFFF" d="M61.543,100.988c8.073,0,14.246-6.174,14.246-14.246c0-8.072-6.173-14.246-14.246-14.246
			c-8.073,0-14.246,6.173-14.246,14.246C47.297,94.815,53.471,100.988,61.543,100.988z M69.702,118.529
			c2.24-1.998,5.077-4.122,8.545-6.063c-4.174-2.217-9.641-3.859-16.704-3.859c-21.844,0-28.492,15.67-28.492,15.67v8.074h26.181
			l0.105-0.248C59.64,131.391,62.501,124.952,69.702,118.529z M150.457,108.607c-6.854,0-12.21,1.543-16.336,3.662
			c3.633,1.992,6.587,4.193,8.902,6.26c7.201,6.422,10.062,12.861,10.365,13.574l0.104,0.248h25.456v-8.074
			C178.948,124.277,172.3,108.607,150.457,108.607z M150.457,100.988c8.072,0,14.246-6.174,14.246-14.246
			c0-8.072-6.174-14.246-14.246-14.246c-8.073,0-14.246,6.173-14.246,14.246C136.211,94.815,142.384,100.988,150.457,100.988z
			 M106.364,104.198c1.536,0,3.028-0.147,4.464-0.428c0.717-0.14,1.419-0.315,2.105-0.521c1.03-0.309,2.023-0.69,2.977-1.138
			c1.27-0.597,2.465-1.312,3.574-2.133c1.664-1.231,3.133-2.701,4.363-4.364c0.41-0.554,0.795-1.13,1.151-1.728
			c0.534-0.894,1.005-1.834,1.408-2.813c0.268-0.653,0.506-1.323,0.713-2.01c0.103-0.343,0.198-0.69,0.284-1.042
			c0.175-0.702,0.316-1.42,0.422-2.151c0.16-1.097,0.242-2.224,0.242-3.377c0-1.153-0.084-2.281-0.242-3.377
			c-0.107-0.731-0.248-1.449-0.422-2.151c-0.086-0.351-0.182-0.698-0.284-1.042c-0.206-0.686-0.445-1.357-0.713-2.01
			c-0.403-0.979-0.874-1.919-1.408-2.813c-0.356-0.596-0.74-1.172-1.151-1.727c-1.23-1.664-2.699-3.133-4.363-4.364
			c-1.109-0.821-2.305-1.536-3.574-2.133c-0.952-0.448-1.946-0.829-2.977-1.138c-0.687-0.206-1.389-0.38-2.105-0.521
			c-1.434-0.281-2.928-0.428-4.464-0.428c-12.299,0-21.705,9.405-21.705,21.704C84.659,94.793,94.065,104.198,106.364,104.198z
			 M145.629,131c-0.35-0.532-0.748-1.107-1.199-1.718c-0.453-0.609-0.957-1.252-1.517-1.917s-1.177-1.352-1.851-2.051
			c-1.013-1.047-2.156-2.119-3.442-3.179c-1.716-1.413-3.685-2.804-5.931-4.083c-1.092-0.621-2.252-1.216-3.477-1.775
			c-0.036-0.017-0.068-0.034-0.104-0.051c-5.692-2.58-12.85-4.375-21.747-4.375c-8.898,0-16.055,1.795-21.746,4.375
			c-0.196,0.09-0.379,0.186-0.572,0.276c-0.832,0.392-1.631,0.799-2.399,1.222c-0.416,0.228-0.823,0.459-1.221,0.695
			c-1.988,1.178-3.763,2.436-5.318,3.716c-1.286,1.06-2.431,2.132-3.443,3.179c-0.674,0.699-1.29,1.386-1.85,2.051
			s-1.065,1.308-1.516,1.917c-0.452,0.61-0.851,1.186-1.2,1.718c-0.324,0.493-0.6,0.943-0.841,1.352
			c-0.019,0.031-0.042,0.068-0.061,0.101c-0.253,0.432-0.459,0.809-0.622,1.118c-0.325,0.621-0.475,0.976-0.475,0.976v11.692h82.53
			v-11.692c0,0-0.359-0.842-1.158-2.194C146.229,131.943,145.952,131.493,145.629,131z"/>
	</g>
</g>
</svg>
